<svg width="131" height="155" viewBox="0 0 131 155" fill="none" xmlns="http://www.w3.org/2000/svg">
<g clip-path="url(#clip0_305_6204)">
<g clip-path="url(#clip1_305_6204)">
<path d="M-46.1723 81.3193L-71.8804 153.372C-75.3685 163.131 -70.4163 171 -60.8996 171H-7.15793L30.5215 65.3614L-46.1723 81.3193Z" fill="white"/>
<path d="M43.311 -19H6.83732C-2.67942 -19 -13.2297 -11.087 -16.7177 -1.37159L-27.2679 28.2143L30.5215 65.3614L54.3349 -1.37159C57.7799 -11.087 52.8708 -19 43.311 -19Z" fill="white"/>
<path d="M121.899 171H102.694C83.6172 171 62.5167 155.218 55.5837 135.743L6.70809 -1.37159C3.22005 -11.131 8.1722 -19 17.6889 -19H54.1626C63.7224 -19 74.2727 -11.087 77.7177 -1.37159L132.88 153.372C136.368 163.131 131.416 171 121.899 171Z" fill="#BFD8E5"/>
</g>
</g>
<defs>
<clipPath id="clip0_305_6204">
<rect width="131" height="155" fill="white"/>
</clipPath>
<clipPath id="clip1_305_6204">
<rect width="207" height="190" fill="white" transform="translate(-73 -19)"/>
</clipPath>
</defs>
</svg>
