<svg width="38" height="34" viewBox="0 0 38 34" fill="none" xmlns="http://www.w3.org/2000/svg">
<g clip-path="url(#clip0_169_4144)">
<path d="M35.3467 33.7434H31.8636C28.4038 33.7434 24.5771 30.9405 23.3197 27.4819L14.4557 3.13075C13.8231 1.39752 14.7212 0 16.4472 0H23.062C24.7958 0 26.7091 1.40532 27.3339 3.13075L37.3382 30.6126C37.9708 32.3459 37.0726 33.7434 35.3467 33.7434Z" fill="#BFD8E5"/>
<path d="M4.86516 17.8164L0.202759 30.6126C-0.429828 32.3458 0.46829 33.7434 2.19424 33.7434H11.9408L18.7743 14.9823L4.86516 17.8164Z" fill="white"/>
<path d="M21.0941 0H14.4792C12.7533 0 10.8399 1.40532 10.2073 3.13075L8.29395 8.3851L18.7746 14.9823L23.0934 3.13075C23.7181 1.40532 22.8278 0 21.0941 0Z" fill="white"/>
</g>
<defs>
<clipPath id="clip0_169_4144">
<rect width="37.5413" height="33.7434" fill="white"/>
</clipPath>
</defs>
</svg>
