<svg width="40" height="37" viewBox="0 0 40 37" fill="none" xmlns="http://www.w3.org/2000/svg">
<g clip-path="url(#clip0_169_3777)">
<path d="M37.2432 37H33.58C29.937 37 25.9025 33.9297 24.5778 30.1284L15.2343 3.43579C14.5719 1.53514 15.5153 0 17.3318 0H24.2968C26.1233 0 28.1305 1.53514 28.8029 3.43579L39.3407 33.5642C40.0031 35.4649 39.0597 37 37.2432 37Z" fill="#156697"/>
<path d="M5.11846 19.5286L0.210875 33.5642C-0.451499 35.4648 0.491882 37 2.30839 37H12.5752L19.771 16.427L5.11846 19.5286Z" fill="#388AC6"/>
<path d="M22.2198 0H15.2548C13.4283 0 11.411 1.53514 10.7487 3.43579L8.73145 9.20039L19.771 16.4375L24.3173 3.44623C24.9797 1.53514 24.0463 0 22.2198 0Z" fill="#388AC6"/>
</g>
<defs>
<clipPath id="clip0_169_3777">
<rect width="39.5517" height="37" fill="white"/>
</clipPath>
</defs>
</svg>
