<svg width="40" height="37" viewBox="0 0 40 37" fill="none" xmlns="http://www.w3.org/2000/svg">
<g clip-path="url(#clip0_405_18535)">
<path d="M37.238 37H33.5685C29.9237 37 25.8922 33.9267 24.5675 30.1342L15.2292 3.4329C14.5628 1.53239 15.509 0 17.3273 0H24.296C26.1226 0 28.1383 1.54095 28.7965 3.4329L39.3361 33.5671C40.0025 35.4676 39.0563 37 37.238 37Z" fill="#BFD8E5"/>
<path d="M5.12548 19.5358L0.213608 33.567C-0.452826 35.4676 0.493346 36.9999 2.31164 36.9999H12.5797L19.7788 16.4282L5.12548 19.5358Z" fill="white"/>
<path d="M22.2223 0H15.2536C13.4353 0 11.4195 1.54095 10.7531 3.4329L8.7373 9.19436L19.7787 16.4283L24.3286 3.4329C24.9868 1.54095 24.0488 0 22.2223 0Z" fill="white"/>
</g>
<defs>
<clipPath id="clip0_405_18535">
<rect width="39.55" height="37" fill="white"/>
</clipPath>
</defs>
</svg>
