<svg width="28" height="28" viewBox="0 0 28 28" fill="none" xmlns="http://www.w3.org/2000/svg">
<g clip-path="url(#clip0_362_18522)">
<path d="M13 23.5C9 23.1667 1 20.8 1 14C1 5.5 8 2 14.5 2C21 2 27.5 7 27.5 13C27.5 19 17 26 14.5 27" stroke="black" stroke-width="2" stroke-linejoin="round"/>
<mask id="path-2-outside-1_362_18522" maskUnits="userSpaceOnUse" x="5" y="9.5" width="19" height="7" fill="black">
<rect fill="white" x="5" y="9.5" width="19" height="7"/>
<path d="M6.28 15.5C6.14133 15.5 6.02133 15.452 5.92 15.356C5.824 15.2547 5.776 15.1347 5.776 14.996V10.244C5.776 10.1427 5.81067 10.0573 5.88 9.988C5.94933 9.91333 6.03467 9.876 6.136 9.876C6.23733 9.876 6.32267 9.91333 6.392 9.988C6.46667 10.0573 6.504 10.1427 6.504 10.244V14.772H9.12C9.22133 14.772 9.30667 14.8093 9.376 14.884C9.45067 14.9533 9.488 15.0387 9.488 15.14C9.488 15.2413 9.45067 15.3267 9.376 15.396C9.30667 15.4653 9.22133 15.5 9.12 15.5H6.28ZM10.8254 15.54C10.724 15.54 10.6387 15.5053 10.5694 15.436C10.5 15.3667 10.4654 15.2813 10.4654 15.18V10.244C10.4654 10.1427 10.5 10.0573 10.5694 9.988C10.6387 9.91333 10.724 9.876 10.8254 9.876C10.9267 9.876 11.012 9.91333 11.0814 9.988C11.156 10.0573 11.1934 10.1427 11.1934 10.244V15.18C11.1934 15.2813 11.156 15.3667 11.0814 15.436C11.012 15.5053 10.9267 15.54 10.8254 15.54ZM13.1866 15.54C13.0853 15.54 13 15.5053 12.9306 15.436C12.8613 15.3667 12.8266 15.2813 12.8266 15.18V10.404C12.8266 10.26 12.8773 10.1373 12.9786 10.036C13.08 9.92933 13.2026 9.876 13.3466 9.876H13.4506C13.5413 9.876 13.624 9.89733 13.6986 9.94C13.7733 9.98267 13.8373 10.0413 13.8906 10.116L16.9706 14.564V10.244C16.9706 10.1427 17.0053 10.0573 17.0746 9.988C17.144 9.91333 17.2293 9.876 17.3306 9.876C17.432 9.876 17.5173 9.91333 17.5866 9.988C17.6613 10.0573 17.6986 10.1427 17.6986 10.244V15.02C17.6986 15.164 17.6453 15.2867 17.5386 15.388C17.4373 15.4893 17.3146 15.54 17.1706 15.54H17.0746C16.9893 15.54 16.9093 15.5213 16.8346 15.484C16.76 15.4413 16.6986 15.388 16.6506 15.324L13.5546 10.852V15.18C13.5546 15.2813 13.5173 15.3667 13.4426 15.436C13.3733 15.5053 13.288 15.54 13.1866 15.54ZM19.6885 15.5C19.5872 15.5 19.5018 15.4653 19.4325 15.396C19.3632 15.3267 19.3285 15.2413 19.3285 15.14V10.284C19.3285 10.1827 19.3632 10.0973 19.4325 10.028C19.5018 9.95333 19.5872 9.916 19.6885 9.916H22.8965C22.9925 9.916 23.0725 9.95067 23.1365 10.02C23.2058 10.084 23.2405 10.164 23.2405 10.26C23.2405 10.356 23.2058 10.436 23.1365 10.5C23.0725 10.564 22.9925 10.596 22.8965 10.596H20.0565V12.364H22.6085C22.7045 12.364 22.7845 12.3987 22.8485 12.468C22.9178 12.532 22.9525 12.612 22.9525 12.708C22.9525 12.804 22.9178 12.884 22.8485 12.948C22.7845 13.012 22.7045 13.044 22.6085 13.044H20.0565V14.82H22.8965C22.9925 14.82 23.0725 14.8547 23.1365 14.924C23.2058 14.988 23.2405 15.068 23.2405 15.164C23.2405 15.26 23.2058 15.34 23.1365 15.404C23.0725 15.468 22.9925 15.5 22.8965 15.5H19.6885Z"/>
</mask>
<path d="M6.28 15.5C6.14133 15.5 6.02133 15.452 5.92 15.356C5.824 15.2547 5.776 15.1347 5.776 14.996V10.244C5.776 10.1427 5.81067 10.0573 5.88 9.988C5.94933 9.91333 6.03467 9.876 6.136 9.876C6.23733 9.876 6.32267 9.91333 6.392 9.988C6.46667 10.0573 6.504 10.1427 6.504 10.244V14.772H9.12C9.22133 14.772 9.30667 14.8093 9.376 14.884C9.45067 14.9533 9.488 15.0387 9.488 15.14C9.488 15.2413 9.45067 15.3267 9.376 15.396C9.30667 15.4653 9.22133 15.5 9.12 15.5H6.28ZM10.8254 15.54C10.724 15.54 10.6387 15.5053 10.5694 15.436C10.5 15.3667 10.4654 15.2813 10.4654 15.18V10.244C10.4654 10.1427 10.5 10.0573 10.5694 9.988C10.6387 9.91333 10.724 9.876 10.8254 9.876C10.9267 9.876 11.012 9.91333 11.0814 9.988C11.156 10.0573 11.1934 10.1427 11.1934 10.244V15.18C11.1934 15.2813 11.156 15.3667 11.0814 15.436C11.012 15.5053 10.9267 15.54 10.8254 15.54ZM13.1866 15.54C13.0853 15.54 13 15.5053 12.9306 15.436C12.8613 15.3667 12.8266 15.2813 12.8266 15.18V10.404C12.8266 10.26 12.8773 10.1373 12.9786 10.036C13.08 9.92933 13.2026 9.876 13.3466 9.876H13.4506C13.5413 9.876 13.624 9.89733 13.6986 9.94C13.7733 9.98267 13.8373 10.0413 13.8906 10.116L16.9706 14.564V10.244C16.9706 10.1427 17.0053 10.0573 17.0746 9.988C17.144 9.91333 17.2293 9.876 17.3306 9.876C17.432 9.876 17.5173 9.91333 17.5866 9.988C17.6613 10.0573 17.6986 10.1427 17.6986 10.244V15.02C17.6986 15.164 17.6453 15.2867 17.5386 15.388C17.4373 15.4893 17.3146 15.54 17.1706 15.54H17.0746C16.9893 15.54 16.9093 15.5213 16.8346 15.484C16.76 15.4413 16.6986 15.388 16.6506 15.324L13.5546 10.852V15.18C13.5546 15.2813 13.5173 15.3667 13.4426 15.436C13.3733 15.5053 13.288 15.54 13.1866 15.54ZM19.6885 15.5C19.5872 15.5 19.5018 15.4653 19.4325 15.396C19.3632 15.3267 19.3285 15.2413 19.3285 15.14V10.284C19.3285 10.1827 19.3632 10.0973 19.4325 10.028C19.5018 9.95333 19.5872 9.916 19.6885 9.916H22.8965C22.9925 9.916 23.0725 9.95067 23.1365 10.02C23.2058 10.084 23.2405 10.164 23.2405 10.26C23.2405 10.356 23.2058 10.436 23.1365 10.5C23.0725 10.564 22.9925 10.596 22.8965 10.596H20.0565V12.364H22.6085C22.7045 12.364 22.7845 12.3987 22.8485 12.468C22.9178 12.532 22.9525 12.612 22.9525 12.708C22.9525 12.804 22.9178 12.884 22.8485 12.948C22.7845 13.012 22.7045 13.044 22.6085 13.044H20.0565V14.82H22.8965C22.9925 14.82 23.0725 14.8547 23.1365 14.924C23.2058 14.988 23.2405 15.068 23.2405 15.164C23.2405 15.26 23.2058 15.34 23.1365 15.404C23.0725 15.468 22.9925 15.5 22.8965 15.5H19.6885Z" fill="black"/>
<path d="M5.92 15.356L5.70221 15.5623C5.70593 15.5662 5.70975 15.5701 5.71368 15.5738L5.92 15.356ZM5.88 9.988L6.09228 10.2003L6.09984 10.1921L5.88 9.988ZM6.392 9.988L6.17216 10.1921C6.1772 10.1976 6.18244 10.2028 6.18787 10.2078L6.392 9.988ZM6.504 14.772H6.204C6.204 14.9377 6.33831 15.072 6.504 15.072V14.772ZM9.376 14.884L9.15616 15.0881C9.1612 15.0936 9.16644 15.0988 9.17187 15.1038L9.376 14.884ZM9.376 15.396L9.17173 15.176L9.16387 15.1839L9.376 15.396ZM6.28 15.2C6.21866 15.2 6.17235 15.1818 6.12632 15.1382L5.71368 15.5738C5.87032 15.7222 6.06401 15.8 6.28 15.8V15.2ZM6.13779 15.1497C6.09419 15.1037 6.076 15.0573 6.076 14.996H5.476C5.476 15.212 5.55381 15.4057 5.70221 15.5623L6.13779 15.1497ZM6.076 14.996V10.244H5.476V14.996H6.076ZM6.076 10.244C6.076 10.2193 6.08113 10.2111 6.09213 10.2001L5.66787 9.77587C5.5402 9.90353 5.476 10.0661 5.476 10.244H6.076ZM6.09984 10.1921C6.10916 10.1821 6.11469 10.1795 6.11625 10.1788C6.11777 10.1782 6.12305 10.176 6.136 10.176V9.576C5.95072 9.576 5.7859 9.64845 5.66016 9.78386L6.09984 10.1921ZM6.136 10.176C6.14895 10.176 6.15423 10.1782 6.15575 10.1788C6.15731 10.1795 6.16284 10.1821 6.17216 10.1921L6.61184 9.78386C6.4861 9.64845 6.32128 9.576 6.136 9.576V10.176ZM6.18787 10.2078C6.1979 10.2172 6.20047 10.2227 6.20115 10.2242C6.20182 10.2258 6.204 10.231 6.204 10.244H6.804C6.804 10.0587 6.73155 9.8939 6.59614 9.76816L6.18787 10.2078ZM6.204 10.244V14.772H6.804V10.244H6.204ZM6.504 15.072H9.12V14.472H6.504V15.072ZM9.12 15.072C9.13296 15.072 9.13823 15.0742 9.13975 15.0748C9.14131 15.0755 9.14684 15.0781 9.15616 15.0881L9.59584 14.6799C9.4701 14.5445 9.30528 14.472 9.12 14.472V15.072ZM9.17187 15.1038C9.1819 15.1132 9.18447 15.1187 9.18515 15.1202C9.18582 15.1218 9.188 15.127 9.188 15.14H9.788C9.788 14.9547 9.71555 14.7899 9.58014 14.6642L9.17187 15.1038ZM9.188 15.14C9.188 15.153 9.18582 15.1582 9.18515 15.1598C9.18447 15.1613 9.1819 15.1668 9.17187 15.1762L9.58014 15.6158C9.71555 15.4901 9.788 15.3253 9.788 15.14H9.188ZM9.16387 15.1839C9.15287 15.1949 9.14474 15.2 9.12 15.2V15.8C9.29792 15.8 9.46047 15.7358 9.58813 15.6081L9.16387 15.1839ZM9.12 15.2H6.28V15.8H9.12V15.2ZM10.5694 15.436L10.7815 15.2239L10.7815 15.2239L10.5694 15.436ZM10.5694 9.988L10.7817 10.2003L10.7892 10.1921L10.5694 9.988ZM11.0814 9.988L10.8615 10.1921C10.8666 10.1976 10.8718 10.2028 10.8772 10.2078L11.0814 9.988ZM11.0814 15.436L10.8771 15.216L10.8692 15.2239L11.0814 15.436ZM10.8254 15.24C10.8006 15.24 10.7925 15.2349 10.7815 15.2239L10.3572 15.6481C10.4849 15.7758 10.6475 15.84 10.8254 15.84V15.24ZM10.7815 15.2239C10.7705 15.2129 10.7654 15.2047 10.7654 15.18H10.1654C10.1654 15.3579 10.2296 15.5205 10.3572 15.6481L10.7815 15.2239ZM10.7654 15.18V10.244H10.1654V15.18H10.7654ZM10.7654 10.244C10.7654 10.2193 10.7705 10.2111 10.7815 10.2001L10.3572 9.77587C10.2296 9.90353 10.1654 10.0661 10.1654 10.244H10.7654ZM10.7892 10.1921C10.7985 10.1821 10.8041 10.1795 10.8056 10.1788C10.8071 10.1782 10.8124 10.176 10.8254 10.176V9.576C10.6401 9.576 10.4753 9.64845 10.3495 9.78386L10.7892 10.1921ZM10.8254 10.176C10.8383 10.176 10.8436 10.1782 10.8451 10.1788C10.8467 10.1795 10.8522 10.1821 10.8615 10.1921L11.3012 9.78386C11.1755 9.64845 11.0107 9.576 10.8254 9.576V10.176ZM10.8772 10.2078C10.8873 10.2172 10.8898 10.2227 10.8905 10.2242C10.8912 10.2258 10.8934 10.231 10.8934 10.244H11.4934C11.4934 10.0587 11.4209 9.8939 11.2855 9.76816L10.8772 10.2078ZM10.8934 10.244V15.18H11.4934V10.244H10.8934ZM10.8934 15.18C10.8934 15.193 10.8912 15.1982 10.8905 15.1998C10.8898 15.2013 10.8873 15.2068 10.8772 15.2162L11.2855 15.6558C11.4209 15.5301 11.4934 15.3653 11.4934 15.18H10.8934ZM10.8692 15.2239C10.8582 15.2349 10.8501 15.24 10.8254 15.24V15.84C11.0033 15.84 11.1658 15.7758 11.2935 15.6481L10.8692 15.2239ZM12.9306 15.436L13.1428 15.2239L13.1428 15.2239L12.9306 15.436ZM12.9786 10.036L13.1908 10.2482L13.1961 10.2426L12.9786 10.036ZM13.6986 9.94L13.8475 9.67953L13.8475 9.67953L13.6986 9.94ZM13.8906 10.116L14.1373 9.9452L14.1347 9.94163L13.8906 10.116ZM16.9706 14.564L16.724 14.7348C16.7987 14.8427 16.9348 14.8895 17.0601 14.8503C17.1853 14.8112 17.2706 14.6952 17.2706 14.564H16.9706ZM17.0746 9.988L17.2869 10.2003L17.2945 10.1921L17.0746 9.988ZM17.5866 9.988L17.3668 10.1921C17.3718 10.1976 17.3771 10.2028 17.3825 10.2078L17.5866 9.988ZM17.5386 15.388L17.3319 15.1704L17.3265 15.1759L17.5386 15.388ZM16.8346 15.484L16.6858 15.7445C16.6906 15.7472 16.6955 15.7498 16.7005 15.7523L16.8346 15.484ZM16.6506 15.324L16.4038 15.4949L16.4106 15.504L16.6506 15.324ZM13.5546 10.852L13.8013 10.6812C13.7266 10.5733 13.5904 10.5265 13.4652 10.5656C13.3399 10.6048 13.2546 10.7208 13.2546 10.852H13.5546ZM13.4426 15.436L13.2383 15.216L13.2305 15.2239L13.4426 15.436ZM13.1866 15.24C13.1619 15.24 13.1538 15.2349 13.1428 15.2239L12.7185 15.6481C12.8462 15.7758 13.0087 15.84 13.1866 15.84V15.24ZM13.1428 15.2239C13.1318 15.2129 13.1266 15.2047 13.1266 15.18H12.5266C12.5266 15.3579 12.5908 15.5205 12.7185 15.6481L13.1428 15.2239ZM13.1266 15.18V10.404H12.5266V15.18H13.1266ZM13.1266 10.404C13.1266 10.3391 13.146 10.2929 13.1908 10.2481L12.7665 9.82387C12.6086 9.98177 12.5266 10.1809 12.5266 10.404H13.1266ZM13.1961 10.2426C13.2422 10.1941 13.2869 10.176 13.3466 10.176V9.576C13.1184 9.576 12.9177 9.66455 12.7611 9.82937L13.1961 10.2426ZM13.3466 10.176H13.4506V9.576H13.3466V10.176ZM13.4506 10.176C13.492 10.176 13.5229 10.1851 13.5498 10.2005L13.8475 9.67953C13.725 9.60954 13.5906 9.576 13.4506 9.576V10.176ZM13.5498 10.2005C13.5844 10.2202 13.6166 10.2485 13.6465 10.2904L14.1347 9.94163C14.058 9.83412 13.9622 9.7451 13.8475 9.67953L13.5498 10.2005ZM13.644 10.2868L16.724 14.7348L17.2173 14.3932L14.1373 9.94521L13.644 10.2868ZM17.2706 14.564V10.244H16.6706V14.564H17.2706ZM17.2706 10.244C17.2706 10.2193 17.2758 10.2111 17.2868 10.2001L16.8625 9.77587C16.7348 9.90353 16.6706 10.0661 16.6706 10.244H17.2706ZM17.2945 10.1921C17.3038 10.1821 17.3093 10.1795 17.3109 10.1788C17.3124 10.1782 17.3177 10.176 17.3306 10.176V9.576C17.1453 9.576 16.9805 9.64845 16.8548 9.78386L17.2945 10.1921ZM17.3306 10.176C17.3436 10.176 17.3489 10.1782 17.3504 10.1788C17.3519 10.1795 17.3575 10.1821 17.3668 10.1921L17.8065 9.78386C17.6807 9.64845 17.5159 9.576 17.3306 9.576V10.176ZM17.3825 10.2078C17.3925 10.2172 17.3951 10.2227 17.3958 10.2242C17.3964 10.2258 17.3986 10.231 17.3986 10.244H17.9986C17.9986 10.0587 17.9262 9.8939 17.7908 9.76816L17.3825 10.2078ZM17.3986 10.244V15.02H17.9986V10.244H17.3986ZM17.3986 15.02C17.3986 15.0798 17.3805 15.1244 17.332 15.1705L17.7453 15.6055C17.9101 15.4489 17.9986 15.2482 17.9986 15.02H17.3986ZM17.3265 15.1759C17.2817 15.2206 17.2355 15.24 17.1706 15.24V15.84C17.3938 15.84 17.5929 15.758 17.7508 15.6001L17.3265 15.1759ZM17.1706 15.24H17.0746V15.84H17.1706V15.24ZM17.0746 15.24C17.0348 15.24 17.0009 15.2317 16.9688 15.2157L16.7005 15.7523C16.8177 15.811 16.9438 15.84 17.0746 15.84V15.24ZM16.9835 15.2235C16.9417 15.1996 16.9123 15.1728 16.8906 15.144L16.4106 15.504C16.485 15.6032 16.5783 15.683 16.6858 15.7445L16.9835 15.2235ZM16.8973 15.1532L13.8013 10.6812L13.308 11.0228L16.404 15.4948L16.8973 15.1532ZM13.2546 10.852V15.18H13.8546V10.852H13.2546ZM13.2546 15.18C13.2546 15.193 13.2524 15.1982 13.2518 15.1998C13.2511 15.2013 13.2485 15.2068 13.2385 15.2162L13.6468 15.6558C13.7822 15.5301 13.8546 15.3653 13.8546 15.18H13.2546ZM13.2305 15.2239C13.2195 15.2349 13.2114 15.24 13.1866 15.24V15.84C13.3645 15.84 13.5271 15.7758 13.6548 15.6481L13.2305 15.2239ZM19.4325 15.396L19.6446 15.1839L19.6446 15.1839L19.4325 15.396ZM19.4325 10.028L19.6448 10.2403L19.6523 10.2321L19.4325 10.028ZM23.1365 10.02L22.9161 10.2235C22.9215 10.2294 22.9271 10.235 22.933 10.2404L23.1365 10.02ZM23.1365 10.5L22.9329 10.2794L22.9244 10.2879L23.1365 10.5ZM20.0565 10.596V10.296C19.8908 10.296 19.7565 10.4303 19.7565 10.596H20.0565ZM20.0565 12.364H19.7565C19.7565 12.5297 19.8908 12.664 20.0565 12.664V12.364ZM22.8485 12.468L22.6281 12.6715C22.6335 12.6774 22.6391 12.683 22.645 12.6884L22.8485 12.468ZM22.8485 12.948L22.6449 12.7274L22.6364 12.7359L22.8485 12.948ZM20.0565 13.044V12.744C19.8908 12.744 19.7565 12.8783 19.7565 13.044H20.0565ZM20.0565 14.82H19.7565C19.7565 14.9857 19.8908 15.12 20.0565 15.12V14.82ZM23.1365 14.924L22.9161 15.1275C22.9215 15.1334 22.9271 15.139 22.933 15.1444L23.1365 14.924ZM23.1365 15.404L22.9329 15.1834L22.9244 15.1919L23.1365 15.404ZM19.6885 15.2C19.6638 15.2 19.6556 15.1949 19.6446 15.1839L19.2204 15.6081C19.348 15.7358 19.5106 15.8 19.6885 15.8V15.2ZM19.6446 15.1839C19.6336 15.1729 19.6285 15.1647 19.6285 15.14H19.0285C19.0285 15.3179 19.0927 15.4805 19.2204 15.6081L19.6446 15.1839ZM19.6285 15.14V10.284H19.0285V15.14H19.6285ZM19.6285 10.284C19.6285 10.2593 19.6336 10.2511 19.6446 10.2401L19.2204 9.81587C19.0927 9.94353 19.0285 10.1061 19.0285 10.284H19.6285ZM19.6523 10.2321C19.6617 10.2221 19.6672 10.2195 19.6687 10.2188C19.6703 10.2182 19.6755 10.216 19.6885 10.216V9.616C19.5032 9.616 19.3384 9.68845 19.2127 9.82386L19.6523 10.2321ZM19.6885 10.216H22.8965V9.616H19.6885V10.216ZM22.8965 10.216C22.9024 10.216 22.9059 10.2165 22.9075 10.2168C22.9091 10.2171 22.9095 10.2174 22.9092 10.2173C22.909 10.2172 22.9091 10.2172 22.9099 10.2177C22.9107 10.2183 22.9128 10.2199 22.9161 10.2235L23.3569 9.81652C23.235 9.68445 23.0746 9.616 22.8965 9.616V10.216ZM22.933 10.2404C22.9366 10.2437 22.9382 10.2458 22.9388 10.2466C22.9393 10.2474 22.9393 10.2475 22.9392 10.2473C22.9391 10.247 22.9394 10.2474 22.9397 10.249C22.94 10.2506 22.9405 10.2541 22.9405 10.26H23.5405C23.5405 10.0819 23.472 9.92147 23.34 9.79956L22.933 10.2404ZM22.9405 10.26C22.9405 10.2659 22.94 10.2694 22.9397 10.271C22.9394 10.2726 22.9391 10.273 22.9392 10.2727C22.9393 10.2725 22.9393 10.2726 22.9388 10.2734C22.9382 10.2742 22.9366 10.2763 22.933 10.2796L23.34 10.7204C23.472 10.5985 23.5405 10.4381 23.5405 10.26H22.9405ZM22.9244 10.2879C22.9217 10.2905 22.9199 10.2918 22.9191 10.2924C22.9183 10.2929 22.9177 10.2932 22.9171 10.2935C22.9163 10.2938 22.9107 10.296 22.8965 10.296V10.896C23.0667 10.896 23.2247 10.8361 23.3486 10.7121L22.9244 10.2879ZM22.8965 10.296H20.0565V10.896H22.8965V10.296ZM19.7565 10.596V12.364H20.3565V10.596H19.7565ZM20.0565 12.664H22.6085V12.064H20.0565V12.664ZM22.6085 12.664C22.6144 12.664 22.6179 12.6645 22.6195 12.6648C22.6211 12.6651 22.6215 12.6654 22.6212 12.6653C22.621 12.6652 22.6211 12.6652 22.6219 12.6657C22.6227 12.6663 22.6248 12.6679 22.6281 12.6715L23.0689 12.2645C22.947 12.1325 22.7866 12.064 22.6085 12.064V12.664ZM22.645 12.6884C22.6486 12.6917 22.6502 12.6938 22.6508 12.6946C22.6513 12.6954 22.6513 12.6955 22.6512 12.6953C22.6511 12.695 22.6514 12.6954 22.6517 12.697C22.652 12.6986 22.6525 12.7021 22.6525 12.708H23.2525C23.2525 12.5299 23.184 12.3695 23.052 12.2476L22.645 12.6884ZM22.6525 12.708C22.6525 12.7139 22.652 12.7174 22.6517 12.719C22.6514 12.7206 22.6511 12.721 22.6512 12.7207C22.6513 12.7205 22.6513 12.7206 22.6508 12.7214C22.6502 12.7222 22.6486 12.7243 22.645 12.7276L23.052 13.1684C23.184 13.0465 23.2525 12.8861 23.2525 12.708H22.6525ZM22.6364 12.7359C22.6337 12.7385 22.6319 12.7398 22.6311 12.7404C22.6303 12.7409 22.6297 12.7412 22.6291 12.7415C22.6283 12.7418 22.6227 12.744 22.6085 12.744V13.344C22.7787 13.344 22.9367 13.2841 23.0606 13.1601L22.6364 12.7359ZM22.6085 12.744H20.0565V13.344H22.6085V12.744ZM19.7565 13.044V14.82H20.3565V13.044H19.7565ZM20.0565 15.12H22.8965V14.52H20.0565V15.12ZM22.8965 15.12C22.9024 15.12 22.9059 15.1205 22.9075 15.1208C22.9091 15.1211 22.9095 15.1214 22.9092 15.1213C22.909 15.1212 22.9091 15.1212 22.9099 15.1217C22.9107 15.1223 22.9128 15.1239 22.9161 15.1275L23.3569 14.7205C23.235 14.5885 23.0746 14.52 22.8965 14.52V15.12ZM22.933 15.1444C22.9366 15.1477 22.9382 15.1498 22.9388 15.1506C22.9393 15.1514 22.9393 15.1515 22.9392 15.1513C22.9391 15.151 22.9394 15.1514 22.9397 15.153C22.94 15.1546 22.9405 15.1581 22.9405 15.164H23.5405C23.5405 14.9859 23.472 14.8255 23.34 14.7036L22.933 15.1444ZM22.9405 15.164C22.9405 15.1699 22.94 15.1734 22.9397 15.175C22.9394 15.1766 22.9391 15.177 22.9392 15.1767C22.9393 15.1765 22.9393 15.1766 22.9388 15.1774C22.9382 15.1782 22.9366 15.1803 22.933 15.1836L23.34 15.6244C23.472 15.5025 23.5405 15.3421 23.5405 15.164H22.9405ZM22.9244 15.1919C22.9217 15.1945 22.9199 15.1958 22.9191 15.1964C22.9183 15.1969 22.9177 15.1972 22.9171 15.1975C22.9163 15.1978 22.9107 15.2 22.8965 15.2V15.8C23.0667 15.8 23.2247 15.7401 23.3486 15.6161L22.9244 15.1919ZM22.8965 15.2H19.6885V15.8H22.8965V15.2Z" fill="black" mask="url(#path-2-outside-1_362_18522)"/>
</g>
<defs>
<clipPath id="clip0_362_18522">
<rect width="28" height="28" fill="white"/>
</clipPath>
</defs>
</svg>
