<svg width="870" height="774" viewBox="0 0 870 774" fill="none" xmlns="http://www.w3.org/2000/svg">
<g filter="url(#filter0_d_354_16608)">
<path d="M482.406 735.215V737.711L480.824 737.77C479.246 737.825 478.168 737.551 477.59 736.95C477.215 736.567 477.027 735.977 477.027 735.18V727.317H475.246V724.938H477.027V721.375H480.332V724.938H482.406V727.317H480.332V734.067C480.332 734.59 480.398 734.918 480.531 735.051C480.664 735.176 481.07 735.239 481.75 735.239C481.852 735.239 481.957 735.239 482.066 735.239C482.184 735.231 482.297 735.223 482.406 735.215ZM495.484 733.844C495.398 734.602 495.004 735.372 494.301 736.153C493.207 737.395 491.676 738.016 489.707 738.016C488.082 738.016 486.648 737.493 485.406 736.446C484.164 735.399 483.543 733.696 483.543 731.336C483.543 729.125 484.102 727.43 485.219 726.25C486.344 725.071 487.801 724.481 489.59 724.481C490.652 724.481 491.609 724.68 492.461 725.079C493.312 725.477 494.016 726.106 494.57 726.965C495.07 727.723 495.395 728.602 495.543 729.602C495.629 730.188 495.664 731.032 495.648 732.133H486.906C486.953 733.415 487.355 734.313 488.113 734.829C488.574 735.149 489.129 735.309 489.777 735.309C490.465 735.309 491.023 735.114 491.453 734.723C491.688 734.512 491.895 734.219 492.074 733.844H495.484ZM492.18 729.93C492.125 729.047 491.855 728.379 491.371 727.926C490.895 727.465 490.301 727.235 489.59 727.235C488.816 727.235 488.215 727.477 487.785 727.961C487.363 728.446 487.098 729.102 486.988 729.93H492.18ZM508.961 729.403H505.539C505.477 728.926 505.316 728.497 505.059 728.114C504.684 727.598 504.102 727.34 503.312 727.34C502.188 727.34 501.418 727.899 501.004 729.016C500.785 729.61 500.676 730.399 500.676 731.383C500.676 732.321 500.785 733.075 501.004 733.645C501.402 734.708 502.152 735.239 503.254 735.239C504.035 735.239 504.59 735.028 504.918 734.606C505.246 734.184 505.445 733.637 505.516 732.965H508.926C508.848 733.981 508.48 734.942 507.824 735.848C506.777 737.309 505.227 738.04 503.172 738.04C501.117 738.04 499.605 737.43 498.637 736.211C497.668 734.993 497.184 733.411 497.184 731.465C497.184 729.27 497.719 727.563 498.789 726.344C499.859 725.125 501.336 724.516 503.219 724.516C504.82 724.516 506.129 724.875 507.145 725.594C508.168 726.313 508.773 727.583 508.961 729.403ZM522.812 730.094V737.594H519.402V729.825C519.402 729.137 519.285 728.583 519.051 728.161C518.746 727.567 518.168 727.27 517.316 727.27C516.434 727.27 515.762 727.567 515.301 728.161C514.848 728.747 514.621 729.586 514.621 730.68V737.594H511.293V720.379H514.621V726.485C515.105 725.743 515.664 725.227 516.297 724.938C516.938 724.641 517.609 724.493 518.312 724.493C519.102 724.493 519.816 724.629 520.457 724.903C521.105 725.176 521.637 725.594 522.051 726.157C522.402 726.633 522.617 727.125 522.695 727.633C522.773 728.133 522.812 728.954 522.812 730.094Z" fill="#FFF4F4"/>
</g>
<g filter="url(#filter1_d_354_16608)">
<path d="M490.496 52.9341C489.441 52.9341 488.594 52.7231 487.953 52.3013C487.57 52.0513 487.156 51.6138 486.711 50.9888V52.5942H483.441V35.3442H486.77V41.4849C487.191 40.8911 487.656 40.438 488.164 40.1255C488.766 39.7349 489.531 39.5396 490.461 39.5396C492.141 39.5396 493.453 40.145 494.398 41.356C495.352 42.5669 495.828 44.1294 495.828 46.0435C495.828 48.0278 495.359 49.6724 494.422 50.9771C493.484 52.2817 492.176 52.9341 490.496 52.9341ZM492.324 46.395C492.324 45.4888 492.207 44.7388 491.973 44.145C491.527 43.02 490.707 42.4575 489.512 42.4575C488.301 42.4575 487.469 43.0083 487.016 44.1099C486.781 44.6958 486.664 45.4536 486.664 46.3833C486.664 47.4771 486.906 48.3833 487.391 49.1021C487.875 49.8208 488.613 50.1802 489.605 50.1802C490.465 50.1802 491.133 49.8325 491.609 49.1372C492.086 48.4419 492.324 47.5278 492.324 46.395ZM506.422 50.7896C506.391 50.8286 506.312 50.9458 506.188 51.1411C506.062 51.3364 505.914 51.5083 505.742 51.6567C505.219 52.1255 504.711 52.4458 504.219 52.6177C503.734 52.7896 503.164 52.8755 502.508 52.8755C500.617 52.8755 499.344 52.1958 498.688 50.8364C498.32 50.0864 498.137 48.981 498.137 47.52V39.8208H501.559V47.52C501.559 48.2466 501.645 48.7935 501.816 49.1606C502.121 49.8091 502.719 50.1333 503.609 50.1333C504.75 50.1333 505.531 49.6724 505.953 48.7505C506.172 48.2505 506.281 47.5903 506.281 46.77V39.8208H509.668V52.5942H506.422V50.7896ZM521.703 40.4067C522.703 41.0474 523.277 42.1489 523.426 43.7114H520.086C520.039 43.2817 519.918 42.9419 519.723 42.6919C519.355 42.2388 518.73 42.0122 517.848 42.0122C517.121 42.0122 516.602 42.1255 516.289 42.3521C515.984 42.5786 515.832 42.8442 515.832 43.1489C515.832 43.5317 515.996 43.8091 516.324 43.981C516.652 44.1606 517.812 44.4692 519.805 44.9067C521.133 45.2192 522.129 45.6919 522.793 46.3247C523.449 46.9653 523.777 47.7661 523.777 48.7271C523.777 49.9927 523.305 51.0278 522.359 51.8325C521.422 52.6294 519.969 53.0278 518 53.0278C515.992 53.0278 514.508 52.606 513.547 51.7622C512.594 50.9106 512.117 49.8286 512.117 48.5161H515.504C515.574 49.1099 515.727 49.5317 515.961 49.7817C516.375 50.2271 517.141 50.4497 518.258 50.4497C518.914 50.4497 519.434 50.3521 519.816 50.1567C520.207 49.9614 520.402 49.6685 520.402 49.2778C520.402 48.9028 520.246 48.6177 519.934 48.4224C519.621 48.2271 518.461 47.8911 516.453 47.4146C515.008 47.0552 513.988 46.606 513.395 46.0669C512.801 45.5356 512.504 44.77 512.504 43.77C512.504 42.5903 512.965 41.5786 513.887 40.7349C514.816 39.8833 516.121 39.4575 517.801 39.4575C519.395 39.4575 520.695 39.7739 521.703 40.4067ZM529.695 39.8208V52.5942H526.309V39.8208H529.695ZM529.695 35.2153V38.2974H526.309V35.2153H529.695ZM538.953 42.2935C537.82 42.2935 537.043 42.7739 536.621 43.7349C536.402 44.2427 536.293 44.8911 536.293 45.6802V52.5942H532.965V39.8442H536.188V41.7075C536.617 41.0513 537.023 40.5786 537.406 40.2896C538.094 39.7739 538.965 39.5161 540.02 39.5161C541.34 39.5161 542.418 39.8638 543.254 40.5591C544.098 41.2466 544.52 42.3911 544.52 43.9927V52.5942H541.098V44.8247C541.098 44.1528 541.008 43.6372 540.828 43.2778C540.5 42.6216 539.875 42.2935 538.953 42.2935ZM558.547 48.8442C558.461 49.6021 558.066 50.3716 557.363 51.1528C556.27 52.395 554.738 53.0161 552.77 53.0161C551.145 53.0161 549.711 52.4927 548.469 51.4458C547.227 50.3989 546.605 48.6958 546.605 46.3364C546.605 44.1255 547.164 42.4302 548.281 41.2505C549.406 40.0708 550.863 39.481 552.652 39.481C553.715 39.481 554.672 39.6802 555.523 40.0786C556.375 40.4771 557.078 41.106 557.633 41.9653C558.133 42.7231 558.457 43.6021 558.605 44.6021C558.691 45.188 558.727 46.0317 558.711 47.1333H549.969C550.016 48.4146 550.418 49.313 551.176 49.8286C551.637 50.1489 552.191 50.3091 552.84 50.3091C553.527 50.3091 554.086 50.1138 554.516 49.7231C554.75 49.5122 554.957 49.2192 555.137 48.8442H558.547ZM555.242 44.9302C555.188 44.0474 554.918 43.3794 554.434 42.9263C553.957 42.4653 553.363 42.2349 552.652 42.2349C551.879 42.2349 551.277 42.4771 550.848 42.9614C550.426 43.4458 550.16 44.1021 550.051 44.9302H555.242ZM569.773 40.4067C570.773 41.0474 571.348 42.1489 571.496 43.7114H568.156C568.109 43.2817 567.988 42.9419 567.793 42.6919C567.426 42.2388 566.801 42.0122 565.918 42.0122C565.191 42.0122 564.672 42.1255 564.359 42.3521C564.055 42.5786 563.902 42.8442 563.902 43.1489C563.902 43.5317 564.066 43.8091 564.395 43.981C564.723 44.1606 565.883 44.4692 567.875 44.9067C569.203 45.2192 570.199 45.6919 570.863 46.3247C571.52 46.9653 571.848 47.7661 571.848 48.7271C571.848 49.9927 571.375 51.0278 570.43 51.8325C569.492 52.6294 568.039 53.0278 566.07 53.0278C564.062 53.0278 562.578 52.606 561.617 51.7622C560.664 50.9106 560.188 49.8286 560.188 48.5161H563.574C563.645 49.1099 563.797 49.5317 564.031 49.7817C564.445 50.2271 565.211 50.4497 566.328 50.4497C566.984 50.4497 567.504 50.3521 567.887 50.1567C568.277 49.9614 568.473 49.6685 568.473 49.2778C568.473 48.9028 568.316 48.6177 568.004 48.4224C567.691 48.2271 566.531 47.8911 564.523 47.4146C563.078 47.0552 562.059 46.606 561.465 46.0669C560.871 45.5356 560.574 44.77 560.574 43.77C560.574 42.5903 561.035 41.5786 561.957 40.7349C562.887 39.8833 564.191 39.4575 565.871 39.4575C567.465 39.4575 568.766 39.7739 569.773 40.4067ZM583.133 40.4067C584.133 41.0474 584.707 42.1489 584.855 43.7114H581.516C581.469 43.2817 581.348 42.9419 581.152 42.6919C580.785 42.2388 580.16 42.0122 579.277 42.0122C578.551 42.0122 578.031 42.1255 577.719 42.3521C577.414 42.5786 577.262 42.8442 577.262 43.1489C577.262 43.5317 577.426 43.8091 577.754 43.981C578.082 44.1606 579.242 44.4692 581.234 44.9067C582.562 45.2192 583.559 45.6919 584.223 46.3247C584.879 46.9653 585.207 47.7661 585.207 48.7271C585.207 49.9927 584.734 51.0278 583.789 51.8325C582.852 52.6294 581.398 53.0278 579.43 53.0278C577.422 53.0278 575.938 52.606 574.977 51.7622C574.023 50.9106 573.547 49.8286 573.547 48.5161H576.934C577.004 49.1099 577.156 49.5317 577.391 49.7817C577.805 50.2271 578.57 50.4497 579.688 50.4497C580.344 50.4497 580.863 50.3521 581.246 50.1567C581.637 49.9614 581.832 49.6685 581.832 49.2778C581.832 48.9028 581.676 48.6177 581.363 48.4224C581.051 48.2271 579.891 47.8911 577.883 47.4146C576.438 47.0552 575.418 46.606 574.824 46.0669C574.23 45.5356 573.934 44.77 573.934 43.77C573.934 42.5903 574.395 41.5786 575.316 40.7349C576.246 39.8833 577.551 39.4575 579.23 39.4575C580.824 39.4575 582.125 39.7739 583.133 40.4067Z" fill="#FFF4F4"/>
</g>
<g filter="url(#filter2_f_354_16608)">
<circle cx="449" cy="43.5942" r="30" fill="white" fill-opacity="0.53"/>
</g>
<circle cx="449.5" cy="44.0942" r="15.5" fill="white" fill-opacity="0.53"/>
<path d="M448 59.5942L448 294.594L452 294.594L452 59.5942L448 59.5942Z" fill="#34BFD1" fill-opacity="0.42"/>
<path d="M446.901 325.974L425.669 302.439C423.638 300.187 425.236 296.594 428.268 296.594L470.731 296.594C473.763 296.594 475.361 300.187 473.33 302.439L452.098 325.974C450.708 327.515 448.291 327.515 446.901 325.974Z" fill="#34BFD1" fill-opacity="0.83" stroke="#7EFFE8" stroke-width="3"/>
<path d="M446.901 698.474L425.67 674.939C423.639 672.687 425.236 669.094 428.268 669.094L470.732 669.094C473.764 669.094 475.361 672.687 473.33 674.939L452.099 698.474C450.709 700.015 448.291 700.015 446.901 698.474Z" fill="#34BFD1" fill-opacity="0.83" stroke="#7EFFE8" stroke-width="3"/>
<g filter="url(#filter3_f_354_16608)">
<circle cx="449" cy="365.594" r="45" fill="#7EFFE8" fill-opacity="0.53"/>
</g>
<circle cx="449" cy="365.594" r="23.2258" fill="#7EFFE8" fill-opacity="0.53"/>
<g filter="url(#filter4_d_354_16608)">
<path d="M518.49 357.313C519.99 358.274 520.852 359.926 521.074 362.27H516.064C515.994 361.625 515.812 361.116 515.52 360.741C514.969 360.061 514.031 359.721 512.707 359.721C511.617 359.721 510.838 359.891 510.369 360.231C509.912 360.571 509.684 360.969 509.684 361.426C509.684 362 509.93 362.417 510.422 362.674C510.914 362.944 512.654 363.407 515.643 364.063C517.635 364.532 519.129 365.241 520.125 366.19C521.109 367.151 521.602 368.352 521.602 369.793C521.602 371.692 520.893 373.245 519.475 374.452C518.068 375.647 515.889 376.245 512.936 376.245C509.924 376.245 507.697 375.612 506.256 374.346C504.826 373.069 504.111 371.446 504.111 369.477H509.191C509.297 370.368 509.525 371 509.877 371.375C510.498 372.043 511.646 372.377 513.322 372.377C514.307 372.377 515.086 372.231 515.66 371.938C516.246 371.645 516.539 371.206 516.539 370.62C516.539 370.057 516.305 369.629 515.836 369.336C515.367 369.043 513.627 368.54 510.615 367.825C508.447 367.286 506.918 366.612 506.027 365.803C505.137 365.006 504.691 363.858 504.691 362.358C504.691 360.588 505.383 359.071 506.766 357.805C508.16 356.528 510.117 355.889 512.637 355.889C515.027 355.889 516.979 356.364 518.49 357.313ZM541.307 358.86C542.924 360.887 543.732 363.284 543.732 366.049C543.732 368.862 542.924 371.27 541.307 373.274C539.689 375.266 537.234 376.262 533.941 376.262C530.648 376.262 528.193 375.266 526.576 373.274C524.959 371.27 524.15 368.862 524.15 366.049C524.15 363.284 524.959 360.887 526.576 358.86C528.193 356.833 530.648 355.819 533.941 355.819C537.234 355.819 539.689 356.833 541.307 358.86ZM533.924 360.055C532.459 360.055 531.328 360.577 530.531 361.62C529.746 362.651 529.354 364.127 529.354 366.049C529.354 367.971 529.746 369.454 530.531 370.497C531.328 371.54 532.459 372.061 533.924 372.061C535.389 372.061 536.514 371.54 537.299 370.497C538.084 369.454 538.477 367.971 538.477 366.049C538.477 364.127 538.084 362.651 537.299 361.62C536.514 360.577 535.389 360.055 533.924 360.055ZM547.441 349.684H552.451V375.594H547.441V349.684ZM569.643 372.887C569.596 372.946 569.479 373.122 569.291 373.415C569.104 373.708 568.881 373.965 568.623 374.188C567.838 374.891 567.076 375.372 566.338 375.629C565.611 375.887 564.756 376.016 563.771 376.016C560.936 376.016 559.025 374.997 558.041 372.958C557.49 371.833 557.215 370.174 557.215 367.983V356.434H562.348V367.983C562.348 369.073 562.477 369.893 562.734 370.444C563.191 371.417 564.088 371.903 565.424 371.903C567.135 371.903 568.307 371.211 568.939 369.829C569.268 369.079 569.432 368.088 569.432 366.858V356.434H574.512V375.594H569.643V372.887ZM588.135 372.026V375.77L585.762 375.858C583.395 375.94 581.777 375.53 580.91 374.627C580.348 374.053 580.066 373.168 580.066 371.973V360.178H577.395V356.61H580.066V351.266H585.023V356.61H588.135V360.178H585.023V370.303C585.023 371.088 585.123 371.581 585.322 371.78C585.521 371.967 586.131 372.061 587.15 372.061C587.303 372.061 587.461 372.061 587.625 372.061C587.801 372.049 587.971 372.038 588.135 372.026ZM596.502 356.434V375.594H591.422V356.434H596.502ZM596.502 349.526V354.149H591.422V349.526H596.502ZM617.35 358.86C618.967 360.887 619.775 363.284 619.775 366.049C619.775 368.862 618.967 371.27 617.35 373.274C615.732 375.266 613.277 376.262 609.984 376.262C606.691 376.262 604.236 375.266 602.619 373.274C601.002 371.27 600.193 368.862 600.193 366.049C600.193 363.284 601.002 360.887 602.619 358.86C604.236 356.833 606.691 355.819 609.984 355.819C613.277 355.819 615.732 356.833 617.35 358.86ZM609.967 360.055C608.502 360.055 607.371 360.577 606.574 361.62C605.789 362.651 605.396 364.127 605.396 366.049C605.396 367.971 605.789 369.454 606.574 370.497C607.371 371.54 608.502 372.061 609.967 372.061C611.432 372.061 612.557 371.54 613.342 370.497C614.127 369.454 614.52 367.971 614.52 366.049C614.52 364.127 614.127 362.651 613.342 361.62C612.557 360.577 611.432 360.055 609.967 360.055ZM632.396 360.143C630.697 360.143 629.531 360.864 628.898 362.305C628.57 363.067 628.406 364.04 628.406 365.223V375.594H623.414V356.469H628.248V359.264C628.893 358.28 629.502 357.571 630.076 357.137C631.107 356.364 632.414 355.977 633.996 355.977C635.977 355.977 637.594 356.499 638.848 357.542C640.113 358.573 640.746 360.29 640.746 362.692V375.594H635.613V363.94C635.613 362.932 635.479 362.159 635.209 361.62C634.717 360.635 633.779 360.143 632.396 360.143Z" fill="#9BF3FF"/>
</g>
<path d="M448 388.594L448 667.594L452 667.594L452 388.594L448 388.594Z" fill="white" fill-opacity="0.09"/>
<g filter="url(#filter5_f_354_16608)">
<circle cx="450" cy="730.594" r="30" fill="white" fill-opacity="0.53"/>
</g>
<circle cx="450.5" cy="730.094" r="15.5" fill="white" fill-opacity="0.53"/>
<defs>
<filter id="filter0_d_354_16608" x="465.346" y="714.479" width="67.3664" height="37.4602" filterUnits="userSpaceOnUse" color-interpolation-filters="sRGB">
<feFlood flood-opacity="0" result="BackgroundImageFix"/>
<feColorMatrix in="SourceAlpha" type="matrix" values="0 0 0 0 0 0 0 0 0 0 0 0 0 0 0 0 0 0 127 0" result="hardAlpha"/>
<feOffset dy="4"/>
<feGaussianBlur stdDeviation="4.95"/>
<feComposite in2="hardAlpha" operator="out"/>
<feColorMatrix type="matrix" values="0 0 0 0 1 0 0 0 0 1 0 0 0 0 1 0 0 0 0.11 0"/>
<feBlend mode="normal" in2="BackgroundImageFix" result="effect1_dropShadow_354_16608"/>
<feBlend mode="normal" in="SourceGraphic" in2="effect1_dropShadow_354_16608" result="shape"/>
</filter>
<filter id="filter1_d_354_16608" x="473.541" y="29.3153" width="121.566" height="37.6125" filterUnits="userSpaceOnUse" color-interpolation-filters="sRGB">
<feFlood flood-opacity="0" result="BackgroundImageFix"/>
<feColorMatrix in="SourceAlpha" type="matrix" values="0 0 0 0 0 0 0 0 0 0 0 0 0 0 0 0 0 0 127 0" result="hardAlpha"/>
<feOffset dy="4"/>
<feGaussianBlur stdDeviation="4.95"/>
<feComposite in2="hardAlpha" operator="out"/>
<feColorMatrix type="matrix" values="0 0 0 0 1 0 0 0 0 1 0 0 0 0 1 0 0 0 0.11 0"/>
<feBlend mode="normal" in2="BackgroundImageFix" result="effect1_dropShadow_354_16608"/>
<feBlend mode="normal" in="SourceGraphic" in2="effect1_dropShadow_354_16608" result="shape"/>
</filter>
<filter id="filter2_f_354_16608" x="405.6" y="0.194239" width="86.8" height="86.8" filterUnits="userSpaceOnUse" color-interpolation-filters="sRGB">
<feFlood flood-opacity="0" result="BackgroundImageFix"/>
<feBlend mode="normal" in="SourceGraphic" in2="BackgroundImageFix" result="shape"/>
<feGaussianBlur stdDeviation="6.7" result="effect1_foregroundBlur_354_16608"/>
</filter>
<filter id="filter3_f_354_16608" x="390.6" y="307.194" width="116.8" height="116.8" filterUnits="userSpaceOnUse" color-interpolation-filters="sRGB">
<feFlood flood-opacity="0" result="BackgroundImageFix"/>
<feBlend mode="normal" in="SourceGraphic" in2="BackgroundImageFix" result="shape"/>
<feGaussianBlur stdDeviation="6.7" result="effect1_foregroundBlur_354_16608"/>
</filter>
<filter id="filter4_d_354_16608" x="504.111" y="341.526" width="161.635" height="50.7363" filterUnits="userSpaceOnUse" color-interpolation-filters="sRGB">
<feFlood flood-opacity="0" result="BackgroundImageFix"/>
<feColorMatrix in="SourceAlpha" type="matrix" values="0 0 0 0 0 0 0 0 0 0 0 0 0 0 0 0 0 0 127 0" result="hardAlpha"/>
<feOffset dx="13" dy="4"/>
<feGaussianBlur stdDeviation="6"/>
<feComposite in2="hardAlpha" operator="out"/>
<feColorMatrix type="matrix" values="0 0 0 0 0 0 0 0 0 0 0 0 0 0 0 0 0 0 1 0"/>
<feBlend mode="normal" in2="BackgroundImageFix" result="effect1_dropShadow_354_16608"/>
<feBlend mode="normal" in="SourceGraphic" in2="effect1_dropShadow_354_16608" result="shape"/>
</filter>
<filter id="filter5_f_354_16608" x="406.6" y="687.194" width="86.8" height="86.8" filterUnits="userSpaceOnUse" color-interpolation-filters="sRGB">
<feFlood flood-opacity="0" result="BackgroundImageFix"/>
<feBlend mode="normal" in="SourceGraphic" in2="BackgroundImageFix" result="shape"/>
<feGaussianBlur stdDeviation="6.7" result="effect1_foregroundBlur_354_16608"/>
</filter>
</defs>
</svg>
