<svg width="870" height="451" viewBox="0 0 870 451" fill="none" xmlns="http://www.w3.org/2000/svg">
<g filter="url(#filter0_d_354_17356)">
<path d="M482.406 411.621V414.117L480.824 414.176C479.246 414.23 478.168 413.957 477.59 413.355C477.215 412.973 477.027 412.383 477.027 411.586V403.723H475.246V401.344H477.027V397.781H480.332V401.344H482.406V403.723H480.332V410.473C480.332 410.996 480.398 411.324 480.531 411.457C480.664 411.582 481.07 411.645 481.75 411.645C481.852 411.645 481.957 411.645 482.066 411.645C482.184 411.637 482.297 411.629 482.406 411.621ZM495.484 410.25C495.398 411.008 495.004 411.777 494.301 412.559C493.207 413.801 491.676 414.422 489.707 414.422C488.082 414.422 486.648 413.898 485.406 412.852C484.164 411.805 483.543 410.102 483.543 407.742C483.543 405.531 484.102 403.836 485.219 402.656C486.344 401.477 487.801 400.887 489.59 400.887C490.652 400.887 491.609 401.086 492.461 401.484C493.312 401.883 494.016 402.512 494.57 403.371C495.07 404.129 495.395 405.008 495.543 406.008C495.629 406.594 495.664 407.438 495.648 408.539H486.906C486.953 409.82 487.355 410.719 488.113 411.234C488.574 411.555 489.129 411.715 489.777 411.715C490.465 411.715 491.023 411.52 491.453 411.129C491.688 410.918 491.895 410.625 492.074 410.25H495.484ZM492.18 406.336C492.125 405.453 491.855 404.785 491.371 404.332C490.895 403.871 490.301 403.641 489.59 403.641C488.816 403.641 488.215 403.883 487.785 404.367C487.363 404.852 487.098 405.508 486.988 406.336H492.18ZM508.961 405.809H505.539C505.477 405.332 505.316 404.902 505.059 404.52C504.684 404.004 504.102 403.746 503.312 403.746C502.188 403.746 501.418 404.305 501.004 405.422C500.785 406.016 500.676 406.805 500.676 407.789C500.676 408.727 500.785 409.48 501.004 410.051C501.402 411.113 502.152 411.645 503.254 411.645C504.035 411.645 504.59 411.434 504.918 411.012C505.246 410.59 505.445 410.043 505.516 409.371H508.926C508.848 410.387 508.48 411.348 507.824 412.254C506.777 413.715 505.227 414.445 503.172 414.445C501.117 414.445 499.605 413.836 498.637 412.617C497.668 411.398 497.184 409.816 497.184 407.871C497.184 405.676 497.719 403.969 498.789 402.75C499.859 401.531 501.336 400.922 503.219 400.922C504.82 400.922 506.129 401.281 507.145 402C508.168 402.719 508.773 403.988 508.961 405.809ZM522.812 406.5V414H519.402V406.23C519.402 405.543 519.285 404.988 519.051 404.566C518.746 403.973 518.168 403.676 517.316 403.676C516.434 403.676 515.762 403.973 515.301 404.566C514.848 405.152 514.621 405.992 514.621 407.086V414H511.293V396.785H514.621V402.891C515.105 402.148 515.664 401.633 516.297 401.344C516.938 401.047 517.609 400.898 518.312 400.898C519.102 400.898 519.816 401.035 520.457 401.309C521.105 401.582 521.637 402 522.051 402.562C522.402 403.039 522.617 403.531 522.695 404.039C522.773 404.539 522.812 405.359 522.812 406.5Z" fill="#FFF4F4"/>
</g>
<g filter="url(#filter1_f_354_17356)">
<circle cx="450" cy="407" r="30" fill="white" fill-opacity="0.53"/>
</g>
<circle cx="450.5" cy="406.5" r="15.5" fill="white" fill-opacity="0.53"/>
<defs>
<filter id="filter0_d_354_17356" x="465.346" y="390.885" width="67.3664" height="37.4602" filterUnits="userSpaceOnUse" color-interpolation-filters="sRGB">
<feFlood flood-opacity="0" result="BackgroundImageFix"/>
<feColorMatrix in="SourceAlpha" type="matrix" values="0 0 0 0 0 0 0 0 0 0 0 0 0 0 0 0 0 0 127 0" result="hardAlpha"/>
<feOffset dy="4"/>
<feGaussianBlur stdDeviation="4.95"/>
<feComposite in2="hardAlpha" operator="out"/>
<feColorMatrix type="matrix" values="0 0 0 0 1 0 0 0 0 1 0 0 0 0 1 0 0 0 0.11 0"/>
<feBlend mode="normal" in2="BackgroundImageFix" result="effect1_dropShadow_354_17356"/>
<feBlend mode="normal" in="SourceGraphic" in2="effect1_dropShadow_354_17356" result="shape"/>
</filter>
<filter id="filter1_f_354_17356" x="406.6" y="363.6" width="86.8" height="86.8" filterUnits="userSpaceOnUse" color-interpolation-filters="sRGB">
<feFlood flood-opacity="0" result="BackgroundImageFix"/>
<feBlend mode="normal" in="SourceGraphic" in2="BackgroundImageFix" result="shape"/>
<feGaussianBlur stdDeviation="6.7" result="effect1_foregroundBlur_354_17356"/>
</filter>
</defs>
</svg>
