<svg width="870" height="428" viewBox="0 0 870 428" fill="none" xmlns="http://www.w3.org/2000/svg">
<g filter="url(#filter0_f_354_17107)">
<circle cx="449" cy="59" r="45" fill="#7EFFE8" fill-opacity="0.53"/>
</g>
<circle cx="449" cy="59.0002" r="23.2258" fill="#7EFFE8" fill-opacity="0.53"/>
<g filter="url(#filter1_d_354_17107)">
<path d="M518.49 50.7188C519.99 51.6797 520.852 53.332 521.074 55.6758H516.064C515.994 55.0312 515.812 54.5215 515.52 54.1465C514.969 53.4668 514.031 53.127 512.707 53.127C511.617 53.127 510.838 53.2969 510.369 53.6367C509.912 53.9766 509.684 54.375 509.684 54.832C509.684 55.4062 509.93 55.8223 510.422 56.0801C510.914 56.3496 512.654 56.8125 515.643 57.4688C517.635 57.9375 519.129 58.6465 520.125 59.5957C521.109 60.5566 521.602 61.7578 521.602 63.1992C521.602 65.0977 520.893 66.6504 519.475 67.8574C518.068 69.0527 515.889 69.6504 512.936 69.6504C509.924 69.6504 507.697 69.0176 506.256 67.752C504.826 66.4746 504.111 64.8516 504.111 62.8828H509.191C509.297 63.7734 509.525 64.4062 509.877 64.7812C510.498 65.4492 511.646 65.7832 513.322 65.7832C514.307 65.7832 515.086 65.6367 515.66 65.3438C516.246 65.0508 516.539 64.6113 516.539 64.0254C516.539 63.4629 516.305 63.0352 515.836 62.7422C515.367 62.4492 513.627 61.9453 510.615 61.2305C508.447 60.6914 506.918 60.0176 506.027 59.209C505.137 58.4121 504.691 57.2637 504.691 55.7637C504.691 53.9941 505.383 52.4766 506.766 51.2109C508.16 49.9336 510.117 49.2949 512.637 49.2949C515.027 49.2949 516.979 49.7695 518.49 50.7188ZM541.307 52.2656C542.924 54.293 543.732 56.6895 543.732 59.4551C543.732 62.2676 542.924 64.6758 541.307 66.6797C539.689 68.6719 537.234 69.668 533.941 69.668C530.648 69.668 528.193 68.6719 526.576 66.6797C524.959 64.6758 524.15 62.2676 524.15 59.4551C524.15 56.6895 524.959 54.293 526.576 52.2656C528.193 50.2383 530.648 49.2246 533.941 49.2246C537.234 49.2246 539.689 50.2383 541.307 52.2656ZM533.924 53.4609C532.459 53.4609 531.328 53.9824 530.531 55.0254C529.746 56.0566 529.354 57.5332 529.354 59.4551C529.354 61.377 529.746 62.8594 530.531 63.9023C531.328 64.9453 532.459 65.4668 533.924 65.4668C535.389 65.4668 536.514 64.9453 537.299 63.9023C538.084 62.8594 538.477 61.377 538.477 59.4551C538.477 57.5332 538.084 56.0566 537.299 55.0254C536.514 53.9824 535.389 53.4609 533.924 53.4609ZM547.441 43.0898H552.451V69H547.441V43.0898ZM569.643 66.293C569.596 66.3516 569.479 66.5273 569.291 66.8203C569.104 67.1133 568.881 67.3711 568.623 67.5938C567.838 68.2969 567.076 68.7773 566.338 69.0352C565.611 69.293 564.756 69.4219 563.771 69.4219C560.936 69.4219 559.025 68.4023 558.041 66.3633C557.49 65.2383 557.215 63.5801 557.215 61.3887V49.8398H562.348V61.3887C562.348 62.4785 562.477 63.2988 562.734 63.8496C563.191 64.8223 564.088 65.3086 565.424 65.3086C567.135 65.3086 568.307 64.6172 568.939 63.2344C569.268 62.4844 569.432 61.4941 569.432 60.2637V49.8398H574.512V69H569.643V66.293ZM588.135 65.4316V69.1758L585.762 69.2637C583.395 69.3457 581.777 68.9355 580.91 68.0332C580.348 67.459 580.066 66.5742 580.066 65.3789V53.584H577.395V50.0156H580.066V44.6719H585.023V50.0156H588.135V53.584H585.023V63.709C585.023 64.4941 585.123 64.9863 585.322 65.1855C585.521 65.373 586.131 65.4668 587.15 65.4668C587.303 65.4668 587.461 65.4668 587.625 65.4668C587.801 65.4551 587.971 65.4434 588.135 65.4316ZM596.502 49.8398V69H591.422V49.8398H596.502ZM596.502 42.9316V47.5547H591.422V42.9316H596.502ZM617.35 52.2656C618.967 54.293 619.775 56.6895 619.775 59.4551C619.775 62.2676 618.967 64.6758 617.35 66.6797C615.732 68.6719 613.277 69.668 609.984 69.668C606.691 69.668 604.236 68.6719 602.619 66.6797C601.002 64.6758 600.193 62.2676 600.193 59.4551C600.193 56.6895 601.002 54.293 602.619 52.2656C604.236 50.2383 606.691 49.2246 609.984 49.2246C613.277 49.2246 615.732 50.2383 617.35 52.2656ZM609.967 53.4609C608.502 53.4609 607.371 53.9824 606.574 55.0254C605.789 56.0566 605.396 57.5332 605.396 59.4551C605.396 61.377 605.789 62.8594 606.574 63.9023C607.371 64.9453 608.502 65.4668 609.967 65.4668C611.432 65.4668 612.557 64.9453 613.342 63.9023C614.127 62.8594 614.52 61.377 614.52 59.4551C614.52 57.5332 614.127 56.0566 613.342 55.0254C612.557 53.9824 611.432 53.4609 609.967 53.4609ZM632.396 53.5488C630.697 53.5488 629.531 54.2695 628.898 55.7109C628.57 56.4727 628.406 57.4453 628.406 58.6289V69H623.414V49.875H628.248V52.6699C628.893 51.6855 629.502 50.9766 630.076 50.543C631.107 49.7695 632.414 49.3828 633.996 49.3828C635.977 49.3828 637.594 49.9043 638.848 50.9473C640.113 51.9785 640.746 53.6953 640.746 56.0977V69H635.613V57.3457C635.613 56.3379 635.479 55.5645 635.209 55.0254C634.717 54.041 633.779 53.5488 632.396 53.5488Z" fill="#9BF3FF"/>
</g>
<defs>
<filter id="filter0_f_354_17107" x="390.6" y="0.6" width="116.8" height="116.8" filterUnits="userSpaceOnUse" color-interpolation-filters="sRGB">
<feFlood flood-opacity="0" result="BackgroundImageFix"/>
<feBlend mode="normal" in="SourceGraphic" in2="BackgroundImageFix" result="shape"/>
<feGaussianBlur stdDeviation="6.7" result="effect1_foregroundBlur_354_17107"/>
</filter>
<filter id="filter1_d_354_17107" x="504.111" y="34.9316" width="161.635" height="50.7363" filterUnits="userSpaceOnUse" color-interpolation-filters="sRGB">
<feFlood flood-opacity="0" result="BackgroundImageFix"/>
<feColorMatrix in="SourceAlpha" type="matrix" values="0 0 0 0 0 0 0 0 0 0 0 0 0 0 0 0 0 0 127 0" result="hardAlpha"/>
<feOffset dx="13" dy="4"/>
<feGaussianBlur stdDeviation="6"/>
<feComposite in2="hardAlpha" operator="out"/>
<feColorMatrix type="matrix" values="0 0 0 0 0 0 0 0 0 0 0 0 0 0 0 0 0 0 1 0"/>
<feBlend mode="normal" in2="BackgroundImageFix" result="effect1_dropShadow_354_17107"/>
<feBlend mode="normal" in="SourceGraphic" in2="effect1_dropShadow_354_17107" result="shape"/>
</filter>
</defs>
</svg>
