<svg width="870" height="735" viewBox="0 0 870 735" fill="none" xmlns="http://www.w3.org/2000/svg">
<g filter="url(#filter0_d_354_16609)">
<path d="M490.496 53.3398C489.441 53.3398 488.594 53.1289 487.953 52.707C487.57 52.457 487.156 52.0195 486.711 51.3945V53H483.441V35.75H486.77V41.8906C487.191 41.2969 487.656 40.8438 488.164 40.5312C488.766 40.1406 489.531 39.9453 490.461 39.9453C492.141 39.9453 493.453 40.5508 494.398 41.7617C495.352 42.9727 495.828 44.5352 495.828 46.4492C495.828 48.4336 495.359 50.0781 494.422 51.3828C493.484 52.6875 492.176 53.3398 490.496 53.3398ZM492.324 46.8008C492.324 45.8945 492.207 45.1445 491.973 44.5508C491.527 43.4258 490.707 42.8633 489.512 42.8633C488.301 42.8633 487.469 43.4141 487.016 44.5156C486.781 45.1016 486.664 45.8594 486.664 46.7891C486.664 47.8828 486.906 48.7891 487.391 49.5078C487.875 50.2266 488.613 50.5859 489.605 50.5859C490.465 50.5859 491.133 50.2383 491.609 49.543C492.086 48.8477 492.324 47.9336 492.324 46.8008ZM506.422 51.1953C506.391 51.2344 506.312 51.3516 506.188 51.5469C506.062 51.7422 505.914 51.9141 505.742 52.0625C505.219 52.5312 504.711 52.8516 504.219 53.0234C503.734 53.1953 503.164 53.2812 502.508 53.2812C500.617 53.2812 499.344 52.6016 498.688 51.2422C498.32 50.4922 498.137 49.3867 498.137 47.9258V40.2266H501.559V47.9258C501.559 48.6523 501.645 49.1992 501.816 49.5664C502.121 50.2148 502.719 50.5391 503.609 50.5391C504.75 50.5391 505.531 50.0781 505.953 49.1562C506.172 48.6562 506.281 47.9961 506.281 47.1758V40.2266H509.668V53H506.422V51.1953ZM521.703 40.8125C522.703 41.4531 523.277 42.5547 523.426 44.1172H520.086C520.039 43.6875 519.918 43.3477 519.723 43.0977C519.355 42.6445 518.73 42.418 517.848 42.418C517.121 42.418 516.602 42.5312 516.289 42.7578C515.984 42.9844 515.832 43.25 515.832 43.5547C515.832 43.9375 515.996 44.2148 516.324 44.3867C516.652 44.5664 517.812 44.875 519.805 45.3125C521.133 45.625 522.129 46.0977 522.793 46.7305C523.449 47.3711 523.777 48.1719 523.777 49.1328C523.777 50.3984 523.305 51.4336 522.359 52.2383C521.422 53.0352 519.969 53.4336 518 53.4336C515.992 53.4336 514.508 53.0117 513.547 52.168C512.594 51.3164 512.117 50.2344 512.117 48.9219H515.504C515.574 49.5156 515.727 49.9375 515.961 50.1875C516.375 50.6328 517.141 50.8555 518.258 50.8555C518.914 50.8555 519.434 50.7578 519.816 50.5625C520.207 50.3672 520.402 50.0742 520.402 49.6836C520.402 49.3086 520.246 49.0234 519.934 48.8281C519.621 48.6328 518.461 48.2969 516.453 47.8203C515.008 47.4609 513.988 47.0117 513.395 46.4727C512.801 45.9414 512.504 45.1758 512.504 44.1758C512.504 42.9961 512.965 41.9844 513.887 41.1406C514.816 40.2891 516.121 39.8633 517.801 39.8633C519.395 39.8633 520.695 40.1797 521.703 40.8125ZM529.695 40.2266V53H526.309V40.2266H529.695ZM529.695 35.6211V38.7031H526.309V35.6211H529.695ZM538.953 42.6992C537.82 42.6992 537.043 43.1797 536.621 44.1406C536.402 44.6484 536.293 45.2969 536.293 46.0859V53H532.965V40.25H536.188V42.1133C536.617 41.457 537.023 40.9844 537.406 40.6953C538.094 40.1797 538.965 39.9219 540.02 39.9219C541.34 39.9219 542.418 40.2695 543.254 40.9648C544.098 41.6523 544.52 42.7969 544.52 44.3984V53H541.098V45.2305C541.098 44.5586 541.008 44.043 540.828 43.6836C540.5 43.0273 539.875 42.6992 538.953 42.6992ZM558.547 49.25C558.461 50.0078 558.066 50.7773 557.363 51.5586C556.27 52.8008 554.738 53.4219 552.77 53.4219C551.145 53.4219 549.711 52.8984 548.469 51.8516C547.227 50.8047 546.605 49.1016 546.605 46.7422C546.605 44.5312 547.164 42.8359 548.281 41.6562C549.406 40.4766 550.863 39.8867 552.652 39.8867C553.715 39.8867 554.672 40.0859 555.523 40.4844C556.375 40.8828 557.078 41.5117 557.633 42.3711C558.133 43.1289 558.457 44.0078 558.605 45.0078C558.691 45.5938 558.727 46.4375 558.711 47.5391H549.969C550.016 48.8203 550.418 49.7188 551.176 50.2344C551.637 50.5547 552.191 50.7148 552.84 50.7148C553.527 50.7148 554.086 50.5195 554.516 50.1289C554.75 49.918 554.957 49.625 555.137 49.25H558.547ZM555.242 45.3359C555.188 44.4531 554.918 43.7852 554.434 43.332C553.957 42.8711 553.363 42.6406 552.652 42.6406C551.879 42.6406 551.277 42.8828 550.848 43.3672C550.426 43.8516 550.16 44.5078 550.051 45.3359H555.242ZM569.773 40.8125C570.773 41.4531 571.348 42.5547 571.496 44.1172H568.156C568.109 43.6875 567.988 43.3477 567.793 43.0977C567.426 42.6445 566.801 42.418 565.918 42.418C565.191 42.418 564.672 42.5312 564.359 42.7578C564.055 42.9844 563.902 43.25 563.902 43.5547C563.902 43.9375 564.066 44.2148 564.395 44.3867C564.723 44.5664 565.883 44.875 567.875 45.3125C569.203 45.625 570.199 46.0977 570.863 46.7305C571.52 47.3711 571.848 48.1719 571.848 49.1328C571.848 50.3984 571.375 51.4336 570.43 52.2383C569.492 53.0352 568.039 53.4336 566.07 53.4336C564.062 53.4336 562.578 53.0117 561.617 52.168C560.664 51.3164 560.188 50.2344 560.188 48.9219H563.574C563.645 49.5156 563.797 49.9375 564.031 50.1875C564.445 50.6328 565.211 50.8555 566.328 50.8555C566.984 50.8555 567.504 50.7578 567.887 50.5625C568.277 50.3672 568.473 50.0742 568.473 49.6836C568.473 49.3086 568.316 49.0234 568.004 48.8281C567.691 48.6328 566.531 48.2969 564.523 47.8203C563.078 47.4609 562.059 47.0117 561.465 46.4727C560.871 45.9414 560.574 45.1758 560.574 44.1758C560.574 42.9961 561.035 41.9844 561.957 41.1406C562.887 40.2891 564.191 39.8633 565.871 39.8633C567.465 39.8633 568.766 40.1797 569.773 40.8125ZM583.133 40.8125C584.133 41.4531 584.707 42.5547 584.855 44.1172H581.516C581.469 43.6875 581.348 43.3477 581.152 43.0977C580.785 42.6445 580.16 42.418 579.277 42.418C578.551 42.418 578.031 42.5312 577.719 42.7578C577.414 42.9844 577.262 43.25 577.262 43.5547C577.262 43.9375 577.426 44.2148 577.754 44.3867C578.082 44.5664 579.242 44.875 581.234 45.3125C582.562 45.625 583.559 46.0977 584.223 46.7305C584.879 47.3711 585.207 48.1719 585.207 49.1328C585.207 50.3984 584.734 51.4336 583.789 52.2383C582.852 53.0352 581.398 53.4336 579.43 53.4336C577.422 53.4336 575.938 53.0117 574.977 52.168C574.023 51.3164 573.547 50.2344 573.547 48.9219H576.934C577.004 49.5156 577.156 49.9375 577.391 50.1875C577.805 50.6328 578.57 50.8555 579.688 50.8555C580.344 50.8555 580.863 50.7578 581.246 50.5625C581.637 50.3672 581.832 50.0742 581.832 49.6836C581.832 49.3086 581.676 49.0234 581.363 48.8281C581.051 48.6328 579.891 48.2969 577.883 47.8203C576.438 47.4609 575.418 47.0117 574.824 46.4727C574.23 45.9414 573.934 45.1758 573.934 44.1758C573.934 42.9961 574.395 41.9844 575.316 41.1406C576.246 40.2891 577.551 39.8633 579.23 39.8633C580.824 39.8633 582.125 40.1797 583.133 40.8125Z" fill="#FFF4F4"/>
</g>
<g filter="url(#filter1_f_354_16609)">
<circle cx="449" cy="44" r="30" fill="white" fill-opacity="0.53"/>
</g>
<circle cx="449.5" cy="44.5" r="15.5" fill="white" fill-opacity="0.53"/>
<defs>
<filter id="filter0_d_354_16609" x="473.541" y="29.7211" width="121.566" height="37.6125" filterUnits="userSpaceOnUse" color-interpolation-filters="sRGB">
<feFlood flood-opacity="0" result="BackgroundImageFix"/>
<feColorMatrix in="SourceAlpha" type="matrix" values="0 0 0 0 0 0 0 0 0 0 0 0 0 0 0 0 0 0 127 0" result="hardAlpha"/>
<feOffset dy="4"/>
<feGaussianBlur stdDeviation="4.95"/>
<feComposite in2="hardAlpha" operator="out"/>
<feColorMatrix type="matrix" values="0 0 0 0 1 0 0 0 0 1 0 0 0 0 1 0 0 0 0.11 0"/>
<feBlend mode="normal" in2="BackgroundImageFix" result="effect1_dropShadow_354_16609"/>
<feBlend mode="normal" in="SourceGraphic" in2="effect1_dropShadow_354_16609" result="shape"/>
</filter>
<filter id="filter1_f_354_16609" x="405.6" y="0.6" width="86.8" height="86.8" filterUnits="userSpaceOnUse" color-interpolation-filters="sRGB">
<feFlood flood-opacity="0" result="BackgroundImageFix"/>
<feBlend mode="normal" in="SourceGraphic" in2="BackgroundImageFix" result="shape"/>
<feGaussianBlur stdDeviation="6.7" result="effect1_foregroundBlur_354_16609"/>
</filter>
</defs>
</svg>
