<svg width="53" height="34" viewBox="0 0 53 34" fill="none" xmlns="http://www.w3.org/2000/svg">
<path d="M30.2126 31.8846C28.2269 34.0857 24.7731 34.0857 22.7874 31.8846L1.5559 8.34915C-1.34554 5.13286 0.936858 -1.69846e-06 5.26847 -1.31978e-06L47.7315 2.39246e-06C52.0631 2.77114e-06 54.3456 5.13287 51.4441 8.34915L30.2126 31.8846Z" fill="#34BFD1" fill-opacity="0.83"/>
<path d="M30.2126 31.8846C28.2269 34.0857 24.7731 34.0857 22.7874 31.8846L1.5559 8.34915C-1.34554 5.13286 0.936858 -1.69846e-06 5.26847 -1.31978e-06L47.7315 2.39246e-06C52.0631 2.77114e-06 54.3456 5.13287 51.4441 8.34915L30.2126 31.8846Z" stroke="#7EFFE8"/>
</svg>
